<?xml version="1.0" encoding="UTF-8"?>
<svg id="Layer_1" data-name="Layer 1" xmlns="http://www.w3.org/2000/svg" viewBox="0 0 1000 1000">
  <defs>
    <style>
      .cls-1 {
        stroke-width: 0px;
      }

      .cls-1, .cls-2 {
        fill: #6521c0;
      }

      .cls-2 {
        font-family: HelveticaNeue-Medium, 'Helvetica Neue';
        font-size: 66.14px;
        font-weight: 500;
      }
    </style>
  </defs>
  <g>
    <path class="cls-1" d="M520.62,514.88c-1.61,24.37-7.22,48.01-16.73,70.5-11.05,26.12-26.87,49.58-47.02,69.74-20.16,20.15-43.62,35.97-69.74,47.02-27.03,11.43-55.76,17.23-85.38,17.23s-58.35-5.8-85.38-17.23c-26.12-11.05-49.58-26.87-69.74-47.02-20.15-20.16-35.97-43.62-47.02-69.74-11.43-27.03-17.23-55.76-17.23-85.38s5.8-58.35,17.23-85.38c11.05-26.12,26.87-49.58,47.02-69.74,20.16-20.15,43.62-35.97,69.74-47.02,27.03-11.43,55.76-17.23,85.38-17.23s58.35,5.8,85.38,17.23c26.12,11.05,49.58,26.87,69.74,47.02,20.15,20.16,35.97,43.62,47.02,69.74,9.22,21.82,14.79,44.75,16.58,68.36,7.48.4,14.69.8,21.54,1.19-8.15-125.59-112.61-224.93-240.26-224.93S60.98,367.03,60.98,500s107.8,240.77,240.77,240.77,233.29-100.48,240.39-227.08c-6.84.4-14.04.79-21.52,1.2Z"/>
    <path class="cls-1" d="M606.23,498.93l-.26,4.91c-.18,3.31-2.79,5.97-6.09,6.2-9.72.67-30.91,2.1-57.74,3.65-6.84.4-14.04.79-21.52,1.2-63.83,3.41-147.24,6.66-189.73,3.22-8.61-.71-17.13-2.29-25.46-4.67l-11.1-3.18c-3.21-.92-5.43-3.85-5.43-7.18v-8.3c0-3.33,2.22-6.26,5.43-7.18l11.1-3.18c8.33-2.38,16.84-3.96,25.46-4.67,42.44-3.43,125.77-.2,189.58,3.22,7.48.4,14.69.8,21.54,1.19,26.88,1.55,48.13,2.99,57.87,3.66,3.3.22,5.91,2.89,6.09,6.2l.26,4.91Z"/>
  </g>
  <text class="cls-2" transform="translate(665.81 519.57)"><tspan x="0" y="0">Q-EIGHT</tspan></text>
</svg>