<?xml version="1.0" encoding="UTF-8"?>
<svg id="Layer_1" data-name="Layer 1" xmlns="http://www.w3.org/2000/svg" viewBox="0 0 198.95 144.3">
  <defs>
    <style>
      .cls-1 {
        fill: #f27123;
      }

      .cls-2 {
        fill: #1b1d22;
      }
    </style>
  </defs>
  <polygon id="logo-bracket-l" class="cls-1" points="0 144.3 0 0 33.44 0 33.44 5.97 6.66 5.97 6.66 138.33 33.44 138.33 33.44 144.3 0 144.3"/>
  <polygon id="logo-bracket-r" class="cls-1" points="165.44 144.3 165.44 138.33 192.21 138.33 192.21 5.97 165.44 5.97 165.44 0 198.95 0 198.95 144.3 165.44 144.3"/>
  <path class="cls-2" d="M96.39,109.87c-8.96,0-15.83-2.35-20.41-6.98-4.58-4.63-6.89-11.55-6.89-20.56v-20.31c0-9.02,2.34-15.95,6.94-20.59,4.61-4.65,11.5-7,20.45-7h6.04c8.89,0,15.74,2.36,20.36,7,4.61,4.64,6.95,11.57,6.95,20.59v20.31c0,9.02-2.34,15.94-6.95,20.57-4.61,4.63-11.49,6.98-20.45,6.98h-6.04ZM96.48,40.92c-6.66,0-11.77,1.74-15.18,5.18-3.41,3.44-5.14,8.6-5.14,15.34v21.47c0,6.67,1.73,11.8,5.14,15.24,3.41,3.44,8.49,5.18,15.09,5.18h6.04c6.67,0,11.78-1.74,15.18-5.16,3.41-3.43,5.14-8.56,5.14-15.26v-21.47c0-6.74-1.72-11.9-5.1-15.34-3.38-3.43-8.47-5.18-15.13-5.18h-6.04Z"/>
</svg>