<?xml version="1.0" encoding="UTF-8"?>
<svg id="Layer_1" data-name="Layer 1" xmlns="http://www.w3.org/2000/svg" viewBox="0 0 1021.82 532.18">
  <defs>
    <style>
      .cls-1 {
        fill: #f27123;
      }

      .cls-2 {
        fill: #1b1d22;
      }

      .cls-3 {
        fill: #e9e7e4;
      }
    </style>
  </defs>
  <rect class="cls-2" x="0" width="1021.82" height="532.18"/>
  <g>
    <g>
      <g>
        <path class="cls-3" d="M436.15,377.32v-11.62c0-4.91,1.23-8.6,3.68-11.07,2.45-2.47,6.11-3.71,10.98-3.71h3.46c4.83,0,8.48,1.24,10.93,3.71s3.68,6.16,3.68,11.07v11.62c0,4.91-1.23,8.59-3.68,11.05-2.45,2.46-6.11,3.69-10.98,3.69h-3.46c-4.87,0-8.52-1.23-10.96-3.69-2.43-2.46-3.65-6.15-3.65-11.05ZM438.17,377.65c0,4.11,1.08,7.26,3.24,9.43,2.16,2.18,5.27,3.27,9.35,3.27h3.46c4.11,0,7.25-1.08,9.41-3.25,2.16-2.17,3.24-5.32,3.24-9.45v-12.29c0-4.15-1.07-7.31-3.21-9.49-2.14-2.18-5.27-3.27-9.38-3.27h-3.46c-4.11,0-7.25,1.09-9.41,3.27-2.16,2.18-3.24,5.34-3.24,9.49v12.29Z"/>
        <path class="cls-3" d="M478.15,391.32v-28.33h1.83l.11,4.54c1.88-1.51,3.72-2.74,5.52-3.68,1.8-.94,3.67-1.41,5.63-1.41,3.86,0,6.25,1.81,7.19,5.42,2.12-1.7,4.08-3.03,5.88-3.98,1.8-.96,3.69-1.44,5.69-1.44,2.34,0,4.2.73,5.56,2.2,1.37,1.47,2.05,3.71,2.05,6.74v19.95h-1.94v-19.67c0-5.05-1.96-7.58-5.89-7.58-1.7,0-3.42.48-5.16,1.44-1.74.96-3.7,2.32-5.88,4.07.04.29.06.59.08.9.02.3.03.6.03.9v19.95h-1.94v-19.67c0-5.05-1.96-7.58-5.89-7.58-1.7,0-3.42.48-5.17,1.44-1.75.96-3.67,2.27-5.76,3.93v21.89h-1.94Z"/>
        <path class="cls-3" d="M527.26,391.32v-28.33h1.83l.11,4.54c2.08-1.66,4.04-2.92,5.87-3.79,1.83-.87,3.78-1.3,5.87-1.3,5.44,0,8.16,2.98,8.16,8.94v19.95h-1.94v-19.67c0-2.45-.52-4.33-1.55-5.63-1.03-1.3-2.67-1.95-4.9-1.95-1.88,0-3.74.46-5.58,1.38-1.84.92-3.81,2.28-5.94,4.07v21.8h-1.94Z"/>
        <path class="cls-3" d="M558.64,355.73v-3.58h2.16v3.58h-2.16ZM558.75,391.32v-28.33h1.94v28.33h-1.94Z"/>
        <path class="cls-3" d="M570.43,392.28v-41.6h16.21c4.09,0,7.4.96,9.84,2.84,2.52,1.95,3.79,5.05,3.79,9.24v1.41c0,4.18-1.31,7.35-3.9,9.42-2.53,2.02-6.24,3.05-11.03,3.05h-10.94v15.63h-3.97ZM585.78,373.01c3.53,0,6.21-.75,7.97-2.24,1.73-1.46,2.58-3.69,2.58-6.82v-.97c0-3.11-.85-5.26-2.6-6.6-1.8-1.37-4.48-2.07-7.95-2.07h-11.38v18.69h11.38Z"/>
        <path class="cls-3" d="M606.21,392.28v-30.26h3.6l.18,4.72c2.07-1.64,3.74-2.79,5.1-3.5,1.54-.81,3.44-1.22,5.63-1.22h3.45v3.55h-3.12c-1.69,0-3.14.28-4.29.82-1.22.57-3.06,1.83-5.49,3.73l-1.21.95v21.19h-3.86Z"/>
        <path class="cls-3" d="M637.49,392.83c-3.73,0-6.62-1.06-8.6-3.15-1.96-2.07-2.96-5.05-2.96-8.85v-6c0-4.08,1.04-7.35,3.1-9.72,2.09-2.41,5.07-3.64,8.85-3.64h.91c3.55,0,6.31,1.04,8.22,3.1,1.89,2.04,2.84,4.85,2.84,8.37v4.89h-20.11v3c0,2.73.67,4.85,1.98,6.3,1.31,1.44,3.23,2.15,5.89,2.15h.69c1.67,0,3.25-.33,4.7-.97,1.51-.67,2.79-1.41,3.8-2.22l.81-.64,2.06,3.01-.71.56c-1.22.95-2.78,1.83-4.63,2.62-1.89.8-3.96,1.21-6.14,1.21h-.69ZM646,374.31v-1.36c0-2.62-.6-4.63-1.79-5.96-1.18-1.32-2.95-1.96-5.41-1.96h-.91c-2.49,0-4.35.65-5.67,1.98-1.51,1.51-2.33,3.97-2.45,7.31h16.24Z"/>
        <path class="cls-3" d="M667.29,392.83c-3.25,0-5.96-.6-8.04-1.79-2.03-1.15-3.82-2.6-5.32-4.29l-.64-.72,2.8-2.46.63.72c1.25,1.42,2.77,2.63,4.54,3.58,1.72.93,3.75,1.41,6.03,1.41s4.01-.48,5.45-1.43c1.33-.88,1.98-2.21,1.98-4.06,0-1.27-.38-2.23-1.15-2.92-.85-.75-2.32-1.35-4.38-1.75l-6.23-1.24c-2.48-.49-4.38-1.37-5.65-2.59-1.34-1.28-2.01-3.01-2.01-5.16,0-2.9,1.14-5.11,3.38-6.57,2.11-1.38,4.65-2.08,7.54-2.08,2.34,0,4.44.36,6.25,1.08,1.81.72,3.38,1.72,4.69,2.98l.73.71-2.72,2.49-.65-.63c-.99-.96-2.2-1.72-3.59-2.26-1.4-.54-2.98-.82-4.7-.82-2.08,0-3.86.44-5.29,1.3-1.29.78-1.92,2.03-1.92,3.81,0,1.24.4,2.15,1.21,2.77.93.71,2.41,1.25,4.43,1.59l6.56,1.34c2.43.53,4.19,1.34,5.38,2.5,1.24,1.2,1.87,2.97,1.87,5.26,0,3.08-1.1,5.43-3.26,6.99-2.07,1.49-4.73,2.24-7.91,2.24Z"/>
        <path class="cls-3" d="M694.99,392.83c-3.73,0-6.62-1.06-8.6-3.15-1.96-2.07-2.96-5.05-2.96-8.85v-6c0-4.08,1.04-7.35,3.1-9.72,2.09-2.41,5.07-3.64,8.85-3.64h.91c3.55,0,6.31,1.04,8.22,3.1,1.89,2.04,2.84,4.85,2.84,8.37v4.89h-20.11v3c0,2.73.67,4.85,1.98,6.3,1.31,1.44,3.23,2.15,5.89,2.15h.69c1.67,0,3.25-.33,4.7-.97,1.51-.67,2.79-1.41,3.8-2.22l.81-.64,2.06,3.01-.71.56c-1.22.95-2.78,1.83-4.63,2.62-1.89.8-3.96,1.21-6.14,1.21h-.69ZM703.49,374.31v-1.36c0-2.62-.6-4.63-1.79-5.96-1.18-1.32-2.95-1.96-5.41-1.96h-.91c-2.49,0-4.35.65-5.67,1.98-1.51,1.51-2.33,3.97-2.45,7.31h16.24Z"/>
        <path class="cls-3" d="M733.46,392.28v-20.63c0-2.22-.45-3.91-1.34-5.03-.85-1.07-2.2-1.59-4.14-1.59-1.72,0-3.45.43-5.14,1.28-1.66.84-3.48,2.07-5.41,3.66v22.31h-3.86v-30.26h3.73l.09,3.59c1.58-1.15,3.1-2.07,4.54-2.75,1.95-.92,4.06-1.39,6.28-1.39,5.97,0,9.12,3.42,9.12,9.9v20.91h-3.86Z"/>
        <path class="cls-3" d="M754.23,392.83c-2.57,0-4.5-.8-5.76-2.37-1.2-1.5-1.81-3.6-1.81-6.23v-18.66h-5.96l.6-3.55h5.36v-6.86h3.83v6.86h11.84v3.55h-11.84v18.21c0,1.85.32,3.27.95,4.23.55.84,1.56,1.25,3.07,1.25,1.36,0,2.62-.27,3.73-.81,1.19-.57,2.21-1.17,3.02-1.77l.81-.61,2.02,3.03-.76.54c-1.27.91-2.66,1.66-4.11,2.25-1.5.61-3.18.91-4.99.91Z"/>
      </g>
      <polygon id="logo-bracket-l" class="cls-1" points="386.06 423.79 386.06 319.9 410.14 319.9 410.14 324.19 390.86 324.19 390.86 419.49 410.14 419.49 410.14 423.79 386.06 423.79"/>
      <polygon id="logo-bracket-r" class="cls-1" points="790.76 423.79 790.76 419.49 810.04 419.49 810.04 324.19 790.76 324.19 790.76 319.9 814.89 319.9 814.89 423.79 790.76 423.79"/>
    </g>
    <g>
      <polygon id="logo-bracket-l-2" data-name="logo-bracket-l" class="cls-1" points="206.93 423.79 206.93 320.07 230.96 320.07 230.96 324.35 211.72 324.35 211.72 419.5 230.96 419.5 230.96 423.79 206.93 423.79"/>
      <polygon id="logo-bracket-r-2" data-name="logo-bracket-r" class="cls-1" points="325.85 423.79 325.85 419.5 345.09 419.5 345.09 324.35 325.85 324.35 325.85 320.07 349.93 320.07 349.93 423.79 325.85 423.79"/>
      <path class="cls-3" d="M276.21,399.04c-6.44,0-11.38-1.69-14.67-5.02-3.29-3.33-4.96-8.3-4.96-14.78v-14.6c0-6.48,1.68-11.46,4.99-14.8,3.32-3.34,8.26-5.03,14.7-5.03h4.34c6.39,0,11.32,1.69,14.63,5.03,3.31,3.34,4.99,8.32,4.99,14.8v14.6c0,6.48-1.68,11.46-4.99,14.78-3.32,3.33-8.26,5.01-14.7,5.01h-4.34ZM276.28,349.48c-4.79,0-8.46,1.25-10.91,3.73-2.45,2.47-3.7,6.18-3.7,11.02v15.43c0,4.8,1.24,8.48,3.7,10.95,2.45,2.47,6.1,3.73,10.84,3.73h4.34c4.79,0,8.46-1.25,10.92-3.71,2.45-2.46,3.7-6.15,3.7-10.97v-15.43c0-4.84-1.23-8.55-3.67-11.03-2.43-2.47-6.09-3.72-10.87-3.72h-4.34Z"/>
    </g>
  </g>
  <g>
    <polygon id="logo-bracket-l-3" data-name="logo-bracket-l" class="cls-1" points="444.94 185.87 444.94 90.18 467.12 90.18 467.12 94.14 449.36 94.14 449.36 181.91 467.12 181.91 467.12 185.87 444.94 185.87"/>
    <polygon id="logo-bracket-r-3" data-name="logo-bracket-r" class="cls-1" points="554.65 185.87 554.65 181.91 572.41 181.91 572.41 94.14 554.65 94.14 554.65 90.18 576.87 90.18 576.87 185.87 554.65 185.87"/>
    <path class="cls-3" d="M508.86,163.04c-5.94,0-10.5-1.56-13.53-4.63-3.03-3.07-4.57-7.66-4.57-13.64v-13.47c0-5.98,1.55-10.57,4.61-13.65,3.06-3.08,7.62-4.64,13.56-4.64h4.01c5.9,0,10.44,1.56,13.5,4.64,3.06,3.08,4.61,7.67,4.61,13.65v13.47c0,5.98-1.55,10.57-4.61,13.64-3.06,3.07-7.62,4.63-13.56,4.63h-4.01ZM508.93,117.32c-4.42,0-7.81,1.16-10.07,3.44-2.26,2.28-3.41,5.7-3.41,10.17v14.24c0,4.42,1.15,7.82,3.41,10.11,2.26,2.28,5.63,3.44,10,3.44h4.01c4.42,0,7.81-1.15,10.07-3.42,2.26-2.27,3.41-5.68,3.41-10.12v-14.24c0-4.47-1.14-7.89-3.38-10.17-2.24-2.28-5.62-3.43-10.03-3.43h-4.01Z"/>
  </g>
</svg>