<svg width="138" height="34" viewBox="0 0 138 34" fill="none" xmlns="http://www.w3.org/2000/svg">
<path d="M4.89155 9.22005L10.0849 6.25243L15.371 3.19207V6.99434L11.7542 9.12732L8.23012 11.1676L4.89155 9.22005ZM16.762 3.19207L21.9554 6.25243L27.2415 9.22005L23.9029 11.1676L20.2861 9.12732L16.762 6.99434V3.19207ZM27.8906 10.4257V16.4536V22.5744L24.552 20.6269V16.4536V12.3732L27.8906 10.4257ZM27.2415 23.6872L21.9554 26.7476L16.762 29.8079V25.9129L20.2861 23.8727L23.9029 21.8325L27.2415 23.6872ZM15.371 29.8079L10.0849 26.7476L4.89155 23.6872L8.23012 21.8325L11.7542 23.8727L15.371 25.9129V29.8079ZM4.14964 22.5744V16.4536V10.4257L7.48822 12.3732V16.4536V20.6269L4.14964 22.5744Z" fill="#F3A21F"/>
<path d="M9.06477 11.6313L12.2179 9.86922L15.371 8.01446V8.75637L12.5888 10.4257L9.71394 12.0022L9.06477 11.6313ZM16.762 8.01446L19.9151 9.86922L22.9755 11.6313L22.4191 12.0022L19.5442 10.4257L16.762 8.75637V8.01446ZM23.7174 12.8368V16.4536V20.0704L23.0682 19.6995V16.4536V13.2078L23.7174 12.8368ZM22.9755 21.276L19.9151 23.1308L16.762 24.8928V24.1509L19.5442 22.5744L22.4191 20.9051L22.9755 21.276ZM15.371 24.8928L12.2179 23.1308L9.06477 21.276L9.71394 20.9051L12.5888 22.5744L15.371 24.1509V24.8928ZM8.4156 20.0704V16.4536V12.8368L9.06477 13.2078V16.4536V19.6995L8.4156 20.0704Z" fill="#F3A21F"/>
<path d="M43.0009 22.5805H45.1179V13.7345L43.0009 16.8344V22.5805ZM45.1181 10.5841H42.8498L39.1452 16.3304L35.4657 10.5841H33.1975V22.5806H35.3145V14.0623L39.095 19.7328H39.1706L42.472 14.8436C42.4888 14.7764 43.3709 13.3567 45.1182 10.5845L45.1181 10.5841ZM51.1918 20.6652C50.9398 20.6148 50.7045 20.5391 50.4861 20.4383C50.0156 20.2199 49.604 19.9175 49.2512 19.531C48.9152 19.1782 48.6463 18.7414 48.4447 18.2205C48.2599 17.6996 48.1675 17.1704 48.1675 16.6327V16.5823V16.5067C48.1675 15.9523 48.2599 15.4146 48.4447 14.8938C48.6632 14.3561 48.932 13.9277 49.2512 13.6084C49.5872 13.222 49.9905 12.928 50.461 12.7264C50.7466 12.592 50.9902 12.508 51.1918 12.4744V10.5842C50.6038 10.6682 50.0829 10.811 49.6292 11.0126C48.89 11.3318 48.2599 11.7603 47.7391 12.2979C47.2182 12.8356 46.8066 13.474 46.5042 14.2133C46.2017 14.9525 46.0505 15.7254 46.0505 16.5319V16.5823V16.6579C46.0505 17.4812 46.2017 18.2541 46.5042 18.9766C46.773 19.699 47.1762 20.3291 47.7139 20.8668C48.2515 21.4212 48.8816 21.8497 49.6041 22.1521C50.0577 22.3537 50.587 22.4965 51.1918 22.5805V20.6652ZM58.0469 16.5824L58.0469 16.5068C58.0469 15.6835 57.8957 14.9106 57.5932 14.1881C57.2908 13.4489 56.8792 12.8104 56.3583 12.2728C55.8543 11.7351 55.2326 11.3151 54.4933 11.0126C54.0733 10.811 53.5608 10.6682 52.956 10.5842V12.4996L53.2584 12.6004C53.4096 12.6508 53.5273 12.6928 53.6113 12.7264C54.0817 12.9448 54.4934 13.2473 54.8462 13.6337C55.1822 13.9865 55.451 14.4234 55.6527 14.9442C55.8375 15.4651 55.9299 15.9943 55.9299 16.532V16.5824V16.658C55.9299 17.2125 55.8375 17.7501 55.6527 18.271C55.4342 18.8086 55.1654 19.237 54.8461 19.5563C54.5101 19.9427 54.1069 20.2368 53.6364 20.4384C53.418 20.5392 53.1912 20.6148 52.956 20.6652V22.5806C53.46 22.5134 53.9641 22.3705 54.4681 22.1521C55.157 21.8665 55.787 21.4381 56.3583 20.8668C56.9128 20.2787 57.3244 19.6403 57.5932 18.9514C57.8956 18.2122 58.0469 17.4393 58.0469 16.6328L58.0469 16.5824ZM59.7353 22.5805H61.8271V16.1539L59.7353 13.2052V22.5805ZM68.1027 10.5841V18.8757L62.1802 10.5841H59.912L68.4303 22.5806H70.1693V10.5841H68.1027ZM73.3699 10.5841H82.3421V12.4995H73.3699V10.5841ZM73.3699 20.6652H82.3166V22.5805H73.3699V20.6652ZM73.3699 15.5743H81.4598V17.4645H73.3699V15.5743ZM91.8179 12.55H95.6235V10.5842H85.8955V12.55H91.8179ZM89.7011 14.5159H91.8181V22.5806H89.7011V14.5159ZM99.1771 10.5841H108.149V12.4995H99.1771V10.5841ZM99.1771 20.6652H108.124V22.5805H99.1771V20.6652ZM99.1771 15.5743H107.267V17.4645H99.1771V15.5743ZM112.459 14.163C112.761 13.4237 113.198 12.7937 113.769 12.2728C114.29 11.7519 114.962 11.3319 115.785 11.0127C116.609 10.6934 117.474 10.5338 118.381 10.5338H121.179V12.4492H118.407C117.751 12.4492 117.172 12.5584 116.668 12.7768C116.13 12.9952 115.693 13.2809 115.357 13.6337C115.004 13.9697 114.719 14.4066 114.5 14.9442C114.299 15.4314 114.198 15.9775 114.198 16.5824C114.198 17.1872 114.299 17.7333 114.5 18.2205C114.702 18.7246 114.987 19.1614 115.357 19.531C115.693 19.867 116.13 20.1443 116.668 20.3627C117.205 20.5643 117.785 20.6651 118.407 20.6651H121.179V22.5805H118.381C117.44 22.5805 116.584 22.4293 115.811 22.1269C115.004 21.7908 114.324 21.3624 113.769 20.8415C113.198 20.3039 112.761 19.6654 112.459 18.9262C112.14 18.1533 111.98 17.3636 111.98 16.5571C111.98 15.7002 112.14 14.9022 112.459 14.163Z" fill="#F3A21F"/>
</svg>
