<?xml version="1.0" encoding="UTF-8"?>
<svg id="Layer_1" data-name="Layer 1" xmlns="http://www.w3.org/2000/svg" viewBox="0 0 1021.82 532.18">
  <defs>
    <style>
      .cls-1 {
        fill: #f27123;
      }

      .cls-2 {
        fill: #1b1d22;
      }

      .cls-3 {
        fill: #e9e7e4;
      }
    </style>
  </defs>
  <rect class="cls-3" x="0" width="1021.82" height="532.18"/>
  <g>
    <g>
      <g>
        <path class="cls-2" d="M433.22,365.92v-12.08c0-5.1,1.28-8.93,3.82-11.5s6.35-3.85,11.42-3.85h3.59c5.02,0,8.81,1.28,11.36,3.85s3.82,6.4,3.82,11.5v12.08c0,5.1-1.28,8.93-3.82,11.49-2.55,2.56-6.35,3.84-11.42,3.84h-3.59c-5.06,0-8.86-1.28-11.39-3.84-2.53-2.56-3.8-6.39-3.8-11.49ZM435.32,366.27c0,4.27,1.12,7.54,3.36,9.8,2.24,2.26,5.48,3.39,9.72,3.39h3.59c4.27,0,7.53-1.13,9.78-3.38,2.24-2.25,3.36-5.53,3.36-9.82v-12.77c0-4.31-1.11-7.6-3.33-9.86-2.22-2.26-5.47-3.39-9.75-3.39h-3.59c-4.28,0-7.53,1.13-9.78,3.39-2.24,2.26-3.36,5.55-3.36,9.86v12.77Z"/>
        <path class="cls-2" d="M476.87,380.47v-29.44h1.9l.11,4.72c1.96-1.57,3.87-2.85,5.74-3.82,1.87-.98,3.82-1.47,5.85-1.47,4.01,0,6.5,1.88,7.48,5.64,2.2-1.76,4.24-3.14,6.11-4.14,1.87-1,3.84-1.5,5.91-1.5,2.43,0,4.36.76,5.78,2.29s2.13,3.86,2.13,7v20.73h-2.01v-20.44c0-5.25-2.04-7.88-6.12-7.88-1.76,0-3.55.5-5.36,1.49-1.81,1-3.85,2.41-6.11,4.23.04.31.07.62.09.93.02.32.03.63.03.93v20.73h-2.01v-20.44c0-5.25-2.04-7.88-6.12-7.88-1.76,0-3.56.5-5.38,1.49-1.82,1-3.81,2.36-5.98,4.08v22.74h-2.01Z"/>
        <path class="cls-2" d="M527.9,380.47v-29.44h1.9l.11,4.72c2.17-1.72,4.2-3.04,6.1-3.94,1.9-.9,3.93-1.35,6.1-1.35,5.65,0,8.48,3.1,8.48,9.29v20.73h-2.01v-20.44c0-2.55-.54-4.5-1.61-5.85-1.07-1.35-2.77-2.03-5.09-2.03-1.96,0-3.89.48-5.79,1.44-1.91.96-3.96,2.37-6.17,4.23v22.66h-2.01Z"/>
        <path class="cls-2" d="M560.51,343.49v-3.72h2.24v3.72h-2.24ZM560.62,380.47v-29.44h2.01v29.44h-2.01Z"/>
        <path class="cls-2" d="M572.76,381.47v-43.23h16.84c4.25,0,7.69.99,10.23,2.95,2.61,2.02,3.94,5.25,3.94,9.6v1.47c0,4.34-1.36,7.64-4.05,9.79-2.62,2.1-6.48,3.17-11.46,3.17h-11.36v16.25h-4.13ZM588.71,361.44c3.67,0,6.46-.78,8.28-2.32,1.8-1.52,2.68-3.84,2.68-7.09v-1.01c0-3.23-.88-5.47-2.7-6.85-1.87-1.43-4.65-2.15-8.26-2.15h-11.83v19.42h11.83Z"/>
        <path class="cls-2" d="M609.94,381.47v-31.44h3.74l.19,4.9c2.15-1.71,3.88-2.9,5.3-3.64,1.6-.84,3.57-1.26,5.85-1.26h3.59v3.69h-3.24c-1.76,0-3.26.29-4.46.85-1.26.6-3.18,1.9-5.7,3.88l-1.26.99v22.02h-4.01Z"/>
        <path class="cls-2" d="M642.45,382.04c-3.87,0-6.88-1.1-8.94-3.27-2.04-2.16-3.08-5.25-3.08-9.2v-6.24c0-4.24,1.08-7.63,3.22-10.1,2.17-2.51,5.27-3.78,9.19-3.78h.95c3.69,0,6.56,1.08,8.54,3.22,1.96,2.12,2.95,5.04,2.95,8.7v5.08h-20.9v3.11c0,2.84.69,5.04,2.06,6.55,1.36,1.5,3.36,2.23,6.12,2.23h.72c1.73,0,3.37-.34,4.89-1.01,1.57-.69,2.89-1.47,3.95-2.31l.84-.67,2.15,3.13-.74.58c-1.27.99-2.89,1.9-4.81,2.72-1.97.83-4.11,1.26-6.38,1.26h-.72ZM651.29,362.79v-1.42c0-2.72-.63-4.81-1.86-6.19-1.22-1.37-3.06-2.04-5.62-2.04h-.95c-2.59,0-4.52.67-5.89,2.05-1.57,1.57-2.42,4.12-2.55,7.59h16.88Z"/>
        <path class="cls-2" d="M673.42,382.04c-3.38,0-6.19-.62-8.36-1.86-2.11-1.2-3.97-2.7-5.53-4.46l-.67-.75,2.91-2.56.66.75c1.3,1.48,2.88,2.73,4.71,3.72,1.79.97,3.9,1.46,6.27,1.46s4.17-.5,5.66-1.49c1.38-.91,2.05-2.29,2.05-4.22,0-1.32-.39-2.32-1.2-3.04-.88-.78-2.41-1.4-4.55-1.82l-6.47-1.29c-2.57-.51-4.55-1.42-5.87-2.69-1.39-1.33-2.09-3.13-2.09-5.36,0-3.01,1.18-5.31,3.52-6.83,2.2-1.43,4.83-2.16,7.84-2.16,2.43,0,4.62.38,6.49,1.12,1.88.74,3.52,1.79,4.87,3.1l.76.74-2.83,2.59-.68-.65c-1.03-1-2.29-1.78-3.74-2.35-1.46-.57-3.1-.85-4.89-.85-2.16,0-4.01.45-5.49,1.35-1.34.81-1.99,2.11-1.99,3.96,0,1.29.41,2.23,1.25,2.88.96.74,2.51,1.29,4.6,1.66l6.82,1.39c2.53.55,4.35,1.4,5.6,2.6,1.29,1.25,1.94,3.09,1.94,5.47,0,3.2-1.14,5.65-3.39,7.27-2.15,1.55-4.91,2.33-8.22,2.33Z"/>
        <path class="cls-2" d="M702.2,382.04c-3.87,0-6.88-1.1-8.94-3.27-2.04-2.16-3.08-5.25-3.08-9.2v-6.24c0-4.24,1.08-7.63,3.22-10.1,2.17-2.51,5.27-3.78,9.19-3.78h.95c3.69,0,6.56,1.08,8.54,3.22,1.96,2.12,2.95,5.04,2.95,8.7v5.08h-20.9v3.11c0,2.84.69,5.04,2.06,6.55,1.36,1.5,3.36,2.23,6.12,2.23h.72c1.73,0,3.37-.34,4.89-1.01,1.57-.69,2.89-1.47,3.95-2.31l.84-.67,2.15,3.13-.74.58c-1.27.99-2.89,1.9-4.81,2.72-1.97.83-4.11,1.26-6.38,1.26h-.72ZM711.04,362.79v-1.42c0-2.72-.63-4.81-1.86-6.19-1.22-1.37-3.06-2.04-5.62-2.04h-.95c-2.59,0-4.52.67-5.89,2.05-1.57,1.57-2.42,4.12-2.55,7.59h16.88Z"/>
        <path class="cls-2" d="M742.18,381.47v-21.44c0-2.31-.47-4.06-1.39-5.23-.88-1.11-2.29-1.65-4.31-1.65-1.79,0-3.59.45-5.34,1.33-1.73.87-3.62,2.15-5.62,3.8v23.19h-4.01v-31.44h3.87l.09,3.73c1.65-1.19,3.23-2.15,4.72-2.86,2.02-.96,4.22-1.45,6.52-1.45,6.2,0,9.48,3.56,9.48,10.29v21.73h-4.01Z"/>
        <path class="cls-2" d="M763.76,382.04c-2.67,0-4.68-.83-5.98-2.46-1.25-1.56-1.89-3.74-1.89-6.47v-19.39h-6.19l.63-3.69h5.57v-7.13h3.98v7.13h12.31v3.69h-12.31v18.93c0,1.92.33,3.4.99,4.4.57.88,1.62,1.3,3.19,1.3,1.41,0,2.72-.28,3.88-.84,1.24-.59,2.3-1.21,3.14-1.84l.84-.63,2.1,3.15-.79.56c-1.32.94-2.76,1.73-4.27,2.34-1.56.63-3.31.95-5.19.95Z"/>
      </g>
      <polygon id="logo-bracket-l" class="cls-1" points="381.17 414.21 381.17 306.25 406.19 306.25 406.19 310.72 386.15 310.72 386.15 409.75 406.19 409.75 406.19 414.21 381.17 414.21"/>
      <polygon id="logo-bracket-r" class="cls-1" points="801.73 414.21 801.73 409.75 821.76 409.75 821.76 310.72 801.73 310.72 801.73 306.25 826.8 306.25 826.8 414.21 801.73 414.21"/>
    </g>
    <g>
      <polygon id="logo-bracket-l-2" data-name="logo-bracket-l" class="cls-1" points="195.02 414.21 195.02 306.43 220 306.43 220 310.88 200 310.88 200 409.75 220 409.75 220 414.21 195.02 414.21"/>
      <polygon id="logo-bracket-r-2" data-name="logo-bracket-r" class="cls-1" points="318.6 414.21 318.6 409.75 338.6 409.75 338.6 310.88 318.6 310.88 318.6 306.43 343.63 306.43 343.63 414.21 318.6 414.21"/>
      <path class="cls-2" d="M267.02,388.5c-6.69,0-11.82-1.75-15.24-5.21-3.42-3.46-5.15-8.63-5.15-15.36v-15.17c0-6.74,1.75-11.91,5.19-15.38,3.45-3.47,8.59-5.23,15.28-5.23h4.51c6.64,0,11.76,1.76,15.21,5.23,3.44,3.47,5.19,8.64,5.19,15.38v15.17c0,6.74-1.75,11.91-5.19,15.36-3.45,3.46-8.59,5.21-15.28,5.21h-4.51ZM267.09,336.99c-4.98,0-8.79,1.3-11.34,3.87-2.55,2.57-3.84,6.43-3.84,11.46v16.04c0,4.98,1.29,8.81,3.84,11.38,2.55,2.57,6.34,3.87,11.27,3.87h4.51c4.98,0,8.8-1.3,11.34-3.85,2.55-2.56,3.84-6.39,3.84-11.4v-16.04c0-5.03-1.28-8.89-3.81-11.46-2.52-2.57-6.33-3.87-11.3-3.87h-4.51Z"/>
    </g>
  </g>
  <g>
    <polygon id="logo-bracket-l-3" data-name="logo-bracket-l" class="cls-1" points="444.9 181 444.9 85.25 467.09 85.25 467.09 89.21 449.32 89.21 449.32 177.04 467.09 177.04 467.09 181 444.9 181"/>
    <polygon id="logo-bracket-r-3" data-name="logo-bracket-r" class="cls-1" points="554.68 181 554.68 177.04 572.45 177.04 572.45 89.21 554.68 89.21 554.68 85.25 576.92 85.25 576.92 181 554.68 181"/>
    <path class="cls-2" d="M508.86,158.16c-5.95,0-10.5-1.56-13.54-4.63-3.04-3.07-4.58-7.66-4.58-13.65v-13.48c0-5.98,1.55-10.58,4.61-13.66,3.06-3.08,7.63-4.65,13.57-4.65h4.01c5.9,0,10.45,1.56,13.51,4.65,3.06,3.08,4.61,7.68,4.61,13.66v13.48c0,5.98-1.55,10.58-4.61,13.65-3.06,3.07-7.63,4.63-13.57,4.63h-4.01ZM508.92,112.4c-4.42,0-7.81,1.16-10.08,3.44-2.26,2.28-3.41,5.71-3.41,10.18v14.25c0,4.43,1.15,7.83,3.41,10.11,2.26,2.28,5.63,3.44,10.01,3.44h4.01c4.42,0,7.81-1.15,10.08-3.42,2.26-2.27,3.41-5.68,3.41-10.13v-14.25c0-4.47-1.14-7.9-3.38-10.18-2.24-2.28-5.62-3.44-10.04-3.44h-4.01Z"/>
  </g>
</svg>