<?xml version="1.0" encoding="UTF-8"?>
<svg id="Layer_1" data-name="Layer 1" xmlns="http://www.w3.org/2000/svg" viewBox="0 0 816.26 142.39">
  <defs>
    <style>
      .cls-1 {
        fill: #f27123;
      }

      .cls-2 {
        fill: #1b1d22;
      }
    </style>
  </defs>
  <g>
    <g>
      <path class="cls-2" d="M307.76,78.54v-15.6c0-6.59,1.65-11.54,4.94-14.86,3.29-3.32,8.21-4.98,14.75-4.98h4.64c6.49,0,11.38,1.66,14.67,4.98,3.29,3.32,4.94,8.27,4.94,14.86v15.6c0,6.59-1.65,11.54-4.94,14.84-3.29,3.31-8.21,4.96-14.75,4.96h-4.64c-6.54,0-11.44-1.65-14.71-4.96-3.27-3.31-4.9-8.25-4.9-14.84ZM310.47,78.99c0,5.52,1.45,9.75,4.35,12.67,2.9,2.92,7.08,4.38,12.56,4.38h4.64c5.52,0,9.73-1.45,12.63-4.37,2.9-2.91,4.35-7.14,4.35-12.69v-16.49c0-5.57-1.44-9.82-4.31-12.74-2.87-2.92-7.07-4.38-12.59-4.38h-4.64c-5.52,0-9.73,1.46-12.63,4.38-2.9,2.92-4.35,7.17-4.35,12.74v16.49Z"/>
      <path class="cls-2" d="M364.15,97.34v-38.04h2.45l.15,6.09c2.53-2.03,5-3.68,7.41-4.94,2.41-1.26,4.93-1.89,7.56-1.89,5.18,0,8.4,2.43,9.66,7.28,2.85-2.28,5.48-4.06,7.89-5.35,2.41-1.29,4.96-1.93,7.63-1.93,3.14,0,5.63.98,7.47,2.95s2.75,4.98,2.75,9.05v26.78h-2.6v-26.41c0-6.79-2.64-10.18-7.91-10.18-2.28,0-4.59.64-6.93,1.93-2.34,1.29-4.97,3.11-7.89,5.46.05.4.09.8.11,1.21.02.41.04.81.04,1.21v26.78h-2.6v-26.41c0-6.79-2.64-10.18-7.91-10.18-2.28,0-4.59.64-6.95,1.93-2.35,1.29-4.93,3.05-7.73,5.28v29.38h-2.6Z"/>
      <path class="cls-2" d="M430.09,97.34v-38.04h2.45l.15,6.09c2.8-2.23,5.42-3.93,7.88-5.09,2.45-1.16,5.08-1.75,7.88-1.75,7.3,0,10.96,4,10.96,12v26.78h-2.6v-26.41c0-3.29-.69-5.81-2.08-7.56-1.39-1.75-3.58-2.62-6.58-2.62-2.53,0-5.02.62-7.49,1.86-2.46,1.24-5.12,3.06-7.97,5.46v29.27h-2.6Z"/>
      <path class="cls-2" d="M472.21,49.57v-4.81h2.9v4.81h-2.9ZM472.36,97.34v-38.04h2.6v38.04h-2.6Z"/>
      <path class="cls-2" d="M488.05,98.63v-55.85h21.76c5.49,0,9.94,1.28,13.22,3.82,3.38,2.61,5.09,6.79,5.09,12.41v1.89c0,5.61-1.76,9.87-5.24,12.65-3.39,2.71-8.37,4.09-14.81,4.09h-14.68v20.99h-5.33ZM508.66,72.76c4.74,0,8.34-1.01,10.7-3,2.33-1.96,3.46-4.96,3.46-9.15v-1.3c0-4.17-1.14-7.07-3.49-8.86-2.42-1.85-6.01-2.78-10.68-2.78h-15.28v25.09h15.28Z"/>
      <path class="cls-2" d="M536.08,98.63v-40.62h4.84l.24,6.34c2.77-2.21,5.02-3.75,6.85-4.7,2.07-1.08,4.62-1.63,7.56-1.63h4.63v4.77h-4.19c-2.27,0-4.21.37-5.76,1.1-1.63.77-4.11,2.46-7.37,5.01l-1.62,1.28v28.45h-5.18Z"/>
      <path class="cls-2" d="M578.09,99.37c-5,0-8.89-1.42-11.54-4.23-2.64-2.78-3.97-6.78-3.97-11.88v-8.06c0-5.47,1.4-9.86,4.16-13.05,2.81-3.24,6.8-4.89,11.88-4.89h1.23c4.76,0,8.47,1.4,11.03,4.17,2.53,2.74,3.82,6.52,3.82,11.24v6.57h-27.01v4.02c0,3.66.89,6.51,2.66,8.46,1.75,1.94,4.34,2.88,7.9,2.88h.93c2.24,0,4.36-.44,6.31-1.3,2.02-.89,3.74-1.9,5.1-2.99l1.08-.86,2.77,4.04-.96.75c-1.64,1.28-3.73,2.46-6.21,3.51-2.54,1.08-5.32,1.62-8.25,1.62h-.93ZM589.5,74.5v-1.83c0-3.52-.81-6.21-2.4-8-1.58-1.77-3.95-2.63-7.26-2.63h-1.23c-3.34,0-5.83.87-7.62,2.65-2.02,2.03-3.13,5.33-3.29,9.81h21.8Z"/>
      <path class="cls-2" d="M618.1,99.37c-4.37,0-8-.81-10.8-2.4-2.72-1.55-5.13-3.49-7.14-5.76l-.86-.97,3.77-3.31.85.97c1.67,1.91,3.72,3.53,6.09,4.81,2.31,1.25,5.03,1.89,8.1,1.89s5.38-.65,7.31-1.92c1.78-1.18,2.65-2.96,2.65-5.45,0-1.71-.51-3-1.54-3.93-1.14-1.01-3.12-1.81-5.88-2.35l-8.37-1.67c-3.33-.66-5.88-1.83-7.59-3.48-1.79-1.72-2.7-4.05-2.7-6.93,0-3.89,1.53-6.86,4.54-8.83,2.84-1.85,6.24-2.79,10.12-2.79,3.15,0,5.97.49,8.39,1.45,2.42.96,4.54,2.31,6.29,4.01l.98.95-3.65,3.34-.87-.84c-1.33-1.29-2.96-2.31-4.83-3.03-1.88-.73-4.01-1.1-6.31-1.1-2.79,0-5.18.59-7.1,1.75-1.73,1.05-2.57,2.72-2.57,5.12,0,1.66.53,2.88,1.62,3.72,1.24.95,3.24,1.67,5.94,2.14l8.81,1.79c3.27.71,5.63,1.8,7.23,3.36,1.67,1.62,2.51,3.99,2.51,7.06,0,4.14-1.47,7.3-4.38,9.39-2.77,2-6.35,3.01-10.62,3.01Z"/>
      <path class="cls-2" d="M655.28,99.37c-5,0-8.89-1.42-11.54-4.23-2.64-2.78-3.97-6.78-3.97-11.88v-8.06c0-5.47,1.4-9.86,4.16-13.05,2.81-3.24,6.8-4.89,11.88-4.89h1.23c4.76,0,8.47,1.4,11.03,4.17,2.53,2.74,3.82,6.52,3.82,11.24v6.57h-27.01v4.02c0,3.66.89,6.51,2.66,8.46,1.75,1.94,4.34,2.88,7.9,2.88h.93c2.24,0,4.36-.44,6.31-1.3,2.02-.89,3.74-1.9,5.1-2.99l1.08-.86,2.77,4.04-.96.75c-1.64,1.28-3.73,2.46-6.21,3.51-2.54,1.08-5.32,1.62-8.25,1.62h-.93ZM666.7,74.5v-1.83c0-3.52-.81-6.21-2.4-8-1.58-1.77-3.95-2.63-7.26-2.63h-1.23c-3.34,0-5.83.87-7.62,2.65-2.02,2.03-3.13,5.33-3.29,9.81h21.8Z"/>
      <path class="cls-2" d="M706.93,98.63v-27.7c0-2.98-.61-5.25-1.8-6.76-1.14-1.43-2.96-2.13-5.56-2.13-2.31,0-4.64.58-6.91,1.72-2.23,1.12-4.67,2.77-7.26,4.91v29.96h-5.18v-40.62h5l.12,4.82c2.13-1.54,4.17-2.78,6.09-3.7,2.62-1.24,5.45-1.87,8.43-1.87,8.01,0,12.25,4.6,12.25,13.29v28.08h-5.18Z"/>
      <path class="cls-2" d="M734.82,99.37c-3.45,0-6.05-1.07-7.73-3.18-1.62-2.02-2.44-4.83-2.44-8.37v-25.05h-8l.81-4.77h7.19v-9.21h5.14v9.21h15.9v4.77h-15.9v24.45c0,2.48.43,4.39,1.27,5.68.74,1.13,2.09,1.68,4.12,1.68,1.83,0,3.51-.36,5.01-1.08,1.6-.77,2.97-1.56,4.06-2.38l1.09-.81,2.71,4.07-1.02.73c-1.71,1.22-3.56,2.23-5.52,3.02-2.01.81-4.27,1.23-6.71,1.23Z"/>
    </g>
    <polygon id="logo-bracket-l" class="cls-1" points="240.51 140.94 240.51 1.45 272.83 1.45 272.83 7.22 246.95 7.22 246.95 135.17 272.83 135.17 272.83 140.94 240.51 140.94"/>
    <polygon id="logo-bracket-r" class="cls-1" points="783.87 140.94 783.87 135.17 809.76 135.17 809.76 7.22 783.87 7.22 783.87 1.45 816.26 1.45 816.26 140.94 783.87 140.94"/>
  </g>
  <g>
    <polygon id="logo-bracket-l-2" data-name="logo-bracket-l" class="cls-1" points="0 140.94 0 1.68 32.27 1.68 32.27 7.44 6.43 7.44 6.43 135.18 32.27 135.18 32.27 140.94 0 140.94"/>
    <polygon id="logo-bracket-r-2" data-name="logo-bracket-r" class="cls-1" points="159.66 140.94 159.66 135.18 185.51 135.18 185.51 7.44 159.66 7.44 159.66 1.68 192 1.68 192 140.94 159.66 140.94"/>
    <path class="cls-2" d="M93.02,107.71c-8.65,0-15.28-2.27-19.7-6.74-4.42-4.47-6.65-11.14-6.65-19.85v-19.6c0-8.7,2.26-15.39,6.7-19.87,4.45-4.48,11.09-6.76,19.74-6.76h5.83c8.58,0,15.19,2.27,19.65,6.76,4.45,4.48,6.7,11.17,6.7,19.87v19.6c0,8.7-2.26,15.38-6.7,19.85-4.45,4.47-11.09,6.73-19.74,6.73h-5.83ZM93.11,41.17c-6.43,0-11.36,1.68-14.65,5-3.29,3.32-4.96,8.3-4.96,14.8v20.72c0,6.44,1.67,11.39,4.96,14.71,3.29,3.32,8.19,5,14.56,5h5.83c6.43,0,11.36-1.68,14.65-4.98,3.29-3.31,4.96-8.26,4.96-14.73v-20.72c0-6.5-1.66-11.48-4.92-14.81-3.26-3.32-8.17-5-14.6-5h-5.83Z"/>
  </g>
</svg>